<?xml version="1.0" encoding="UTF-8" standalone="no"?>
<!DOCTYPE svg PUBLIC "-//W3C//DTD SVG 1.1//EN"
 "http://www.w3.org/Graphics/SVG/1.1/DTD/svg11.dtd">
<!-- Generated by graphviz version 2.47.0 (20210316.0004)
 -->
<!-- Title: dependencies Pages: 1 -->
<svg width="901pt" height="284pt"
 viewBox="0.00 0.00 901.00 284.00" xmlns="http://www.w3.org/2000/svg" xmlns:xlink="http://www.w3.org/1999/xlink">
<g id="graph0" class="graph" transform="scale(1 1) rotate(0) translate(4 280)">
<title>dependencies</title>
<polygon fill="white" stroke="transparent" points="-4,4 -4,-280 897,-280 897,4 -4,4"/>
<text text-anchor="start" x="425.51" y="-42.4" font-family="Times-12" font-weight="bold" font-size="14.00">Legend</text>
<polygon fill="#ffffb3" stroke="transparent" points="212.5,-10 212.5,-30 232.5,-30 232.5,-10 212.5,-10"/>
<text text-anchor="start" x="236.13" y="-15.4" font-family="Times-12" font-size="14.00"> &#160;Declarations</text>
<polygon fill="#8dd3c7" stroke="transparent" points="325.5,-10 325.5,-30 345.5,-30 345.5,-10 325.5,-10"/>
<text text-anchor="start" x="349.23" y="-15.4" font-family="Times-12" font-size="14.00"> &#160;Module</text>
<polygon fill="#80b1d3" stroke="transparent" points="411.5,-10 411.5,-30 431.5,-30 431.5,-10 411.5,-10"/>
<text text-anchor="start" x="435.28" y="-15.4" font-family="Times-12" font-size="14.00"> &#160;Bootstrap</text>
<polygon fill="#fdb462" stroke="transparent" points="508.5,-10 508.5,-30 528.5,-30 528.5,-10 508.5,-10"/>
<text text-anchor="start" x="532.17" y="-15.4" font-family="Times-12" font-size="14.00"> &#160;Providers</text>
<polygon fill="#fb8072" stroke="transparent" points="604.5,-10 604.5,-30 624.5,-30 624.5,-10 604.5,-10"/>
<text text-anchor="start" x="628.23" y="-15.4" font-family="Times-12" font-size="14.00"> &#160;Exports</text>
<g id="clust1" class="cluster">
<title>cluster_AppModule</title>
<polygon fill="none" stroke="black" stroke-dasharray="1,5" points="8,-70 8,-268 885,-268 885,-70 8,-70"/>
</g>
<g id="clust8" class="cluster">
<title>cluster_AppModule_imports</title>
<polygon fill="none" stroke="black" points="733,-78 733,-130 877,-130 877,-78 733,-78"/>
</g>
<g id="clust10" class="cluster">
<title>cluster_AppModule_bootstrap</title>
<polygon fill="none" stroke="black" points="407,-208 407,-260 531,-260 531,-208 407,-208"/>
</g>
<g id="clust2" class="cluster">
<title>cluster_AppModule_declarations</title>
<polygon fill="none" stroke="black" points="16,-78 16,-130 725,-130 725,-78 16,-78"/>
</g>
<!-- AppComponent -->
<g id="node1" class="node">
<title>AppComponent</title>
<polygon fill="#ffffb3" stroke="black" points="716.94,-122 611.06,-122 611.06,-86 716.94,-86 716.94,-122"/>
<text text-anchor="middle" x="664" y="-99.8" font-family="Times,serif" font-size="14.00">AppComponent</text>
</g>
<!-- AppModule -->
<g id="node6" class="node">
<title>AppModule</title>
<polygon fill="#8dd3c7" stroke="black" points="510.66,-187 507.66,-191 486.66,-191 483.66,-187 427.34,-187 427.34,-151 510.66,-151 510.66,-187"/>
<text text-anchor="middle" x="469" y="-164.8" font-family="Times,serif" font-size="14.00">AppModule</text>
</g>
<!-- AppComponent&#45;&gt;AppModule -->
<g id="edge1" class="edge">
<title>AppComponent&#45;&gt;AppModule</title>
<path fill="none" stroke="black" d="M664,-122.02C664,-139.37 664,-163 664,-163 664,-163 520.83,-163 520.83,-163"/>
<polygon fill="black" stroke="black" points="520.83,-159.5 510.83,-163 520.83,-166.5 520.83,-159.5"/>
</g>
<!-- HomeComponent -->
<g id="node2" class="node">
<title>HomeComponent</title>
<polygon fill="#ffffb3" stroke="black" points="593.55,-122 478.45,-122 478.45,-86 593.55,-86 593.55,-122"/>
<text text-anchor="middle" x="536" y="-99.8" font-family="Times,serif" font-size="14.00">HomeComponent</text>
</g>
<!-- HomeComponent&#45;&gt;AppModule -->
<g id="edge2" class="edge">
<title>HomeComponent&#45;&gt;AppModule</title>
<path fill="none" stroke="black" d="M494.53,-122.11C494.53,-122.11 494.53,-140.99 494.53,-140.99"/>
<polygon fill="black" stroke="black" points="491.03,-140.99 494.53,-150.99 498.03,-140.99 491.03,-140.99"/>
</g>
<!-- LoginComponent -->
<g id="node3" class="node">
<title>LoginComponent</title>
<polygon fill="#ffffb3" stroke="black" points="460.28,-122 345.72,-122 345.72,-86 460.28,-86 460.28,-122"/>
<text text-anchor="middle" x="403" y="-99.8" font-family="Times,serif" font-size="14.00">LoginComponent</text>
</g>
<!-- LoginComponent&#45;&gt;AppModule -->
<g id="edge3" class="edge">
<title>LoginComponent&#45;&gt;AppModule</title>
<path fill="none" stroke="black" d="M443.78,-122.11C443.78,-122.11 443.78,-140.99 443.78,-140.99"/>
<polygon fill="black" stroke="black" points="440.28,-140.99 443.78,-150.99 447.28,-140.99 440.28,-140.99"/>
</g>
<!-- PaginaDoisComponent -->
<g id="node4" class="node">
<title>PaginaDoisComponent</title>
<polygon fill="#ffffb3" stroke="black" points="327.88,-122 182.12,-122 182.12,-86 327.88,-86 327.88,-122"/>
<text text-anchor="middle" x="255" y="-99.8" font-family="Times,serif" font-size="14.00">PaginaDoisComponent</text>
</g>
<!-- PaginaDoisComponent&#45;&gt;AppModule -->
<g id="edge4" class="edge">
<title>PaginaDoisComponent&#45;&gt;AppModule</title>
<path fill="none" stroke="black" d="M255,-122.02C255,-139.37 255,-163 255,-163 255,-163 417.23,-163 417.23,-163"/>
<polygon fill="black" stroke="black" points="417.23,-166.5 427.23,-163 417.23,-159.5 417.23,-166.5"/>
</g>
<!-- PaginaUmComponent -->
<g id="node5" class="node">
<title>PaginaUmComponent</title>
<polygon fill="#ffffb3" stroke="black" points="164.43,-122 23.57,-122 23.57,-86 164.43,-86 164.43,-122"/>
<text text-anchor="middle" x="94" y="-99.8" font-family="Times,serif" font-size="14.00">PaginaUmComponent</text>
</g>
<!-- PaginaUmComponent&#45;&gt;AppModule -->
<g id="edge5" class="edge">
<title>PaginaUmComponent&#45;&gt;AppModule</title>
<path fill="none" stroke="black" d="M94,-122.28C94,-143.32 94,-175 94,-175 94,-175 417.07,-175 417.07,-175"/>
<polygon fill="black" stroke="black" points="417.07,-178.5 427.07,-175 417.07,-171.5 417.07,-178.5"/>
</g>
<!-- AppComponent  -->
<g id="node8" class="node">
<title>AppComponent </title>
<polygon fill="#80b1d3" stroke="black" points="523.44,-252 414.56,-252 414.56,-216 523.44,-216 523.44,-252"/>
<text text-anchor="middle" x="469" y="-229.8" font-family="Times,serif" font-size="14.00">AppComponent </text>
</g>
<!-- AppModule&#45;&gt;AppComponent  -->
<g id="edge7" class="edge">
<title>AppModule&#45;&gt;AppComponent </title>
<path fill="none" stroke="black" stroke-dasharray="1,5" d="M469,-187.11C469,-187.11 469,-205.99 469,-205.99"/>
<polygon fill="black" stroke="black" points="465.5,-205.99 469,-215.99 472.5,-205.99 465.5,-205.99"/>
</g>
<!-- AppRoutingModule -->
<g id="node7" class="node">
<title>AppRoutingModule</title>
<polygon fill="#8dd3c7" stroke="black" points="869.27,-122 866.27,-126 845.27,-126 842.27,-122 740.73,-122 740.73,-86 869.27,-86 869.27,-122"/>
<text text-anchor="middle" x="805" y="-99.8" font-family="Times,serif" font-size="14.00">AppRoutingModule</text>
</g>
<!-- AppRoutingModule&#45;&gt;AppModule -->
<g id="edge6" class="edge">
<title>AppRoutingModule&#45;&gt;AppModule</title>
<path fill="none" stroke="black" d="M805,-122.28C805,-143.32 805,-175 805,-175 805,-175 520.88,-175 520.88,-175"/>
<polygon fill="black" stroke="black" points="520.88,-171.5 510.88,-175 520.88,-178.5 520.88,-171.5"/>
</g>
</g>
</svg>
