<?xml version="1.0" encoding="UTF-8" standalone="no"?>
<!DOCTYPE svg PUBLIC "-//W3C//DTD SVG 1.1//EN"
 "http://www.w3.org/Graphics/SVG/1.1/DTD/svg11.dtd">
<!-- Generated by graphviz version 2.47.0 (20210316.0004)
 -->
<!-- Title: dependencies Pages: 1 -->
<svg width="1051pt" height="284pt"
 viewBox="0.00 0.00 1051.00 284.00" xmlns="http://www.w3.org/2000/svg" xmlns:xlink="http://www.w3.org/1999/xlink">
<g id="graph0" class="graph" transform="scale(1 1) rotate(0) translate(4 280)">
<title>dependencies</title>
<polygon fill="white" stroke="transparent" points="-4,4 -4,-280 1047,-280 1047,4 -4,4"/>
<text text-anchor="start" x="500.51" y="-42.4" font-family="Times-12" font-weight="bold" font-size="14.00">Legend</text>
<polygon fill="#ffffb3" stroke="transparent" points="287.5,-10 287.5,-30 307.5,-30 307.5,-10 287.5,-10"/>
<text text-anchor="start" x="311.13" y="-15.4" font-family="Times-12" font-size="14.00"> &#160;Declarations</text>
<polygon fill="#8dd3c7" stroke="transparent" points="400.5,-10 400.5,-30 420.5,-30 420.5,-10 400.5,-10"/>
<text text-anchor="start" x="424.23" y="-15.4" font-family="Times-12" font-size="14.00"> &#160;Module</text>
<polygon fill="#80b1d3" stroke="transparent" points="486.5,-10 486.5,-30 506.5,-30 506.5,-10 486.5,-10"/>
<text text-anchor="start" x="510.28" y="-15.4" font-family="Times-12" font-size="14.00"> &#160;Bootstrap</text>
<polygon fill="#fdb462" stroke="transparent" points="583.5,-10 583.5,-30 603.5,-30 603.5,-10 583.5,-10"/>
<text text-anchor="start" x="607.17" y="-15.4" font-family="Times-12" font-size="14.00"> &#160;Providers</text>
<polygon fill="#fb8072" stroke="transparent" points="679.5,-10 679.5,-30 699.5,-30 699.5,-10 679.5,-10"/>
<text text-anchor="start" x="703.23" y="-15.4" font-family="Times-12" font-size="14.00"> &#160;Exports</text>
<g id="clust1" class="cluster">
<title>cluster_AppModule</title>
<polygon fill="none" stroke="black" stroke-dasharray="1,5" points="8,-70 8,-268 1035,-268 1035,-70 8,-70"/>
</g>
<g id="clust2" class="cluster">
<title>cluster_AppModule_declarations</title>
<polygon fill="none" stroke="black" points="168,-78 168,-130 1027,-130 1027,-78 168,-78"/>
</g>
<g id="clust9" class="cluster">
<title>cluster_AppModule_imports</title>
<polygon fill="none" stroke="black" points="16,-78 16,-130 160,-130 160,-78 16,-78"/>
</g>
<g id="clust11" class="cluster">
<title>cluster_AppModule_bootstrap</title>
<polygon fill="none" stroke="black" points="495,-208 495,-260 619,-260 619,-208 495,-208"/>
</g>
<!-- AppComponent -->
<g id="node1" class="node">
<title>AppComponent</title>
<polygon fill="#ffffb3" stroke="black" points="1018.94,-122 913.06,-122 913.06,-86 1018.94,-86 1018.94,-122"/>
<text text-anchor="middle" x="966" y="-99.8" font-family="Times,serif" font-size="14.00">AppComponent</text>
</g>
<!-- AppModule -->
<g id="node7" class="node">
<title>AppModule</title>
<polygon fill="#8dd3c7" stroke="black" points="598.66,-187 595.66,-191 574.66,-191 571.66,-187 515.34,-187 515.34,-151 598.66,-151 598.66,-187"/>
<text text-anchor="middle" x="557" y="-164.8" font-family="Times,serif" font-size="14.00">AppModule</text>
</g>
<!-- AppComponent&#45;&gt;AppModule -->
<g id="edge1" class="edge">
<title>AppComponent&#45;&gt;AppModule</title>
<path fill="none" stroke="black" d="M966,-122.29C966,-144.21 966,-178 966,-178 966,-178 608.85,-178 608.85,-178"/>
<polygon fill="black" stroke="black" points="608.85,-174.5 598.85,-178 608.85,-181.5 608.85,-174.5"/>
</g>
<!-- HomeComponent -->
<g id="node2" class="node">
<title>HomeComponent</title>
<polygon fill="#ffffb3" stroke="black" points="895.55,-122 780.45,-122 780.45,-86 895.55,-86 895.55,-122"/>
<text text-anchor="middle" x="838" y="-99.8" font-family="Times,serif" font-size="14.00">HomeComponent</text>
</g>
<!-- HomeComponent&#45;&gt;AppModule -->
<g id="edge2" class="edge">
<title>HomeComponent&#45;&gt;AppModule</title>
<path fill="none" stroke="black" d="M838,-122.11C838,-141.34 838,-169 838,-169 838,-169 608.77,-169 608.77,-169"/>
<polygon fill="black" stroke="black" points="608.77,-165.5 598.77,-169 608.77,-172.5 608.77,-165.5"/>
</g>
<!-- LoginComponent -->
<g id="node3" class="node">
<title>LoginComponent</title>
<polygon fill="#ffffb3" stroke="black" points="762.28,-122 647.72,-122 647.72,-86 762.28,-86 762.28,-122"/>
<text text-anchor="middle" x="705" y="-99.8" font-family="Times,serif" font-size="14.00">LoginComponent</text>
</g>
<!-- LoginComponent&#45;&gt;AppModule -->
<g id="edge3" class="edge">
<title>LoginComponent&#45;&gt;AppModule</title>
<path fill="none" stroke="black" d="M705,-122.03C705,-138.4 705,-160 705,-160 705,-160 609.01,-160 609.01,-160"/>
<polygon fill="black" stroke="black" points="609.02,-156.5 599.01,-160 609.01,-163.5 609.02,-156.5"/>
</g>
<!-- PaginaDoisComponent -->
<g id="node4" class="node">
<title>PaginaDoisComponent</title>
<polygon fill="#ffffb3" stroke="black" points="629.88,-122 484.12,-122 484.12,-86 629.88,-86 629.88,-122"/>
<text text-anchor="middle" x="557" y="-99.8" font-family="Times,serif" font-size="14.00">PaginaDoisComponent</text>
</g>
<!-- PaginaDoisComponent&#45;&gt;AppModule -->
<g id="edge4" class="edge">
<title>PaginaDoisComponent&#45;&gt;AppModule</title>
<path fill="none" stroke="black" d="M557,-122.11C557,-122.11 557,-140.99 557,-140.99"/>
<polygon fill="black" stroke="black" points="553.5,-140.99 557,-150.99 560.5,-140.99 553.5,-140.99"/>
</g>
<!-- PaginaUmComponent -->
<g id="node5" class="node">
<title>PaginaUmComponent</title>
<polygon fill="#ffffb3" stroke="black" points="466.43,-122 325.57,-122 325.57,-86 466.43,-86 466.43,-122"/>
<text text-anchor="middle" x="396" y="-99.8" font-family="Times,serif" font-size="14.00">PaginaUmComponent</text>
</g>
<!-- PaginaUmComponent&#45;&gt;AppModule -->
<g id="edge5" class="edge">
<title>PaginaUmComponent&#45;&gt;AppModule</title>
<path fill="none" stroke="black" d="M396,-122.03C396,-138.4 396,-160 396,-160 396,-160 505.12,-160 505.12,-160"/>
<polygon fill="black" stroke="black" points="505.12,-163.5 515.12,-160 505.12,-156.5 505.12,-163.5"/>
</g>
<!-- PrincipalComponent -->
<g id="node6" class="node">
<title>PrincipalComponent</title>
<polygon fill="#ffffb3" stroke="black" points="307.88,-122 176.12,-122 176.12,-86 307.88,-86 307.88,-122"/>
<text text-anchor="middle" x="242" y="-99.8" font-family="Times,serif" font-size="14.00">PrincipalComponent</text>
</g>
<!-- PrincipalComponent&#45;&gt;AppModule -->
<g id="edge6" class="edge">
<title>PrincipalComponent&#45;&gt;AppModule</title>
<path fill="none" stroke="black" d="M242,-122.11C242,-141.34 242,-169 242,-169 242,-169 505.17,-169 505.17,-169"/>
<polygon fill="black" stroke="black" points="505.17,-172.5 515.17,-169 505.17,-165.5 505.17,-172.5"/>
</g>
<!-- AppComponent  -->
<g id="node9" class="node">
<title>AppComponent </title>
<polygon fill="#80b1d3" stroke="black" points="611.44,-252 502.56,-252 502.56,-216 611.44,-216 611.44,-252"/>
<text text-anchor="middle" x="557" y="-229.8" font-family="Times,serif" font-size="14.00">AppComponent </text>
</g>
<!-- AppModule&#45;&gt;AppComponent  -->
<g id="edge8" class="edge">
<title>AppModule&#45;&gt;AppComponent </title>
<path fill="none" stroke="black" stroke-dasharray="1,5" d="M557,-187.11C557,-187.11 557,-205.99 557,-205.99"/>
<polygon fill="black" stroke="black" points="553.5,-205.99 557,-215.99 560.5,-205.99 553.5,-205.99"/>
</g>
<!-- AppRoutingModule -->
<g id="node8" class="node">
<title>AppRoutingModule</title>
<polygon fill="#8dd3c7" stroke="black" points="152.27,-122 149.27,-126 128.27,-126 125.27,-122 23.73,-122 23.73,-86 152.27,-86 152.27,-122"/>
<text text-anchor="middle" x="88" y="-99.8" font-family="Times,serif" font-size="14.00">AppRoutingModule</text>
</g>
<!-- AppRoutingModule&#45;&gt;AppModule -->
<g id="edge7" class="edge">
<title>AppRoutingModule&#45;&gt;AppModule</title>
<path fill="none" stroke="black" d="M88,-122.29C88,-144.21 88,-178 88,-178 88,-178 504.97,-178 504.97,-178"/>
<polygon fill="black" stroke="black" points="504.97,-181.5 514.97,-178 504.97,-174.5 504.97,-181.5"/>
</g>
</g>
</svg>
