<?xml version="1.0" encoding="UTF-8" standalone="no"?>
<!DOCTYPE svg PUBLIC "-//W3C//DTD SVG 1.1//EN"
 "http://www.w3.org/Graphics/SVG/1.1/DTD/svg11.dtd">
<!-- Generated by graphviz version 2.47.0 (20210316.0004)
 -->
<!-- Title: dependencies Pages: 1 -->
<svg width="901pt" height="284pt"
 viewBox="0.00 0.00 901.00 284.00" xmlns="http://www.w3.org/2000/svg" xmlns:xlink="http://www.w3.org/1999/xlink">
<g id="graph0" class="graph" transform="scale(1 1) rotate(0) translate(4 280)">
<title>dependencies</title>
<polygon fill="white" stroke="transparent" points="-4,4 -4,-280 897,-280 897,4 -4,4"/>
<text text-anchor="start" x="425.51" y="-42.4" font-family="Times-12" font-weight="bold" font-size="14.00">Legend</text>
<polygon fill="#ffffb3" stroke="transparent" points="212.5,-10 212.5,-30 232.5,-30 232.5,-10 212.5,-10"/>
<text text-anchor="start" x="236.13" y="-15.4" font-family="Times-12" font-size="14.00"> &#160;Declarations</text>
<polygon fill="#8dd3c7" stroke="transparent" points="325.5,-10 325.5,-30 345.5,-30 345.5,-10 325.5,-10"/>
<text text-anchor="start" x="349.23" y="-15.4" font-family="Times-12" font-size="14.00"> &#160;Module</text>
<polygon fill="#80b1d3" stroke="transparent" points="411.5,-10 411.5,-30 431.5,-30 431.5,-10 411.5,-10"/>
<text text-anchor="start" x="435.28" y="-15.4" font-family="Times-12" font-size="14.00"> &#160;Bootstrap</text>
<polygon fill="#fdb462" stroke="transparent" points="508.5,-10 508.5,-30 528.5,-30 528.5,-10 508.5,-10"/>
<text text-anchor="start" x="532.17" y="-15.4" font-family="Times-12" font-size="14.00"> &#160;Providers</text>
<polygon fill="#fb8072" stroke="transparent" points="604.5,-10 604.5,-30 624.5,-30 624.5,-10 604.5,-10"/>
<text text-anchor="start" x="628.23" y="-15.4" font-family="Times-12" font-size="14.00"> &#160;Exports</text>
<g id="clust1" class="cluster">
<title>cluster_AppModule</title>
<polygon fill="none" stroke="black" stroke-dasharray="1,5" points="8,-70 8,-268 885,-268 885,-70 8,-70"/>
</g>
<g id="clust2" class="cluster">
<title>cluster_AppModule_declarations</title>
<polygon fill="none" stroke="black" points="168,-78 168,-130 877,-130 877,-78 168,-78"/>
</g>
<g id="clust8" class="cluster">
<title>cluster_AppModule_imports</title>
<polygon fill="none" stroke="black" points="16,-78 16,-130 160,-130 160,-78 16,-78"/>
</g>
<g id="clust10" class="cluster">
<title>cluster_AppModule_bootstrap</title>
<polygon fill="none" stroke="black" points="419,-208 419,-260 543,-260 543,-208 419,-208"/>
</g>
<!-- AppComponent -->
<g id="node1" class="node">
<title>AppComponent</title>
<polygon fill="#ffffb3" stroke="black" points="868.94,-122 763.06,-122 763.06,-86 868.94,-86 868.94,-122"/>
<text text-anchor="middle" x="816" y="-99.8" font-family="Times,serif" font-size="14.00">AppComponent</text>
</g>
<!-- AppModule -->
<g id="node6" class="node">
<title>AppModule</title>
<polygon fill="#8dd3c7" stroke="black" points="522.66,-187 519.66,-191 498.66,-191 495.66,-187 439.34,-187 439.34,-151 522.66,-151 522.66,-187"/>
<text text-anchor="middle" x="481" y="-164.8" font-family="Times,serif" font-size="14.00">AppModule</text>
</g>
<!-- AppComponent&#45;&gt;AppModule -->
<g id="edge1" class="edge">
<title>AppComponent&#45;&gt;AppModule</title>
<path fill="none" stroke="black" d="M816,-122.28C816,-143.32 816,-175 816,-175 816,-175 532.75,-175 532.75,-175"/>
<polygon fill="black" stroke="black" points="532.75,-171.5 522.75,-175 532.75,-178.5 532.75,-171.5"/>
</g>
<!-- HomeComponent -->
<g id="node2" class="node">
<title>HomeComponent</title>
<polygon fill="#ffffb3" stroke="black" points="745.55,-122 630.45,-122 630.45,-86 745.55,-86 745.55,-122"/>
<text text-anchor="middle" x="688" y="-99.8" font-family="Times,serif" font-size="14.00">HomeComponent</text>
</g>
<!-- HomeComponent&#45;&gt;AppModule -->
<g id="edge2" class="edge">
<title>HomeComponent&#45;&gt;AppModule</title>
<path fill="none" stroke="black" d="M688,-122.02C688,-139.37 688,-163 688,-163 688,-163 532.89,-163 532.89,-163"/>
<polygon fill="black" stroke="black" points="532.89,-159.5 522.89,-163 532.89,-166.5 532.89,-159.5"/>
</g>
<!-- LoginComponent -->
<g id="node3" class="node">
<title>LoginComponent</title>
<polygon fill="#ffffb3" stroke="black" points="612.28,-122 497.72,-122 497.72,-86 612.28,-86 612.28,-122"/>
<text text-anchor="middle" x="555" y="-99.8" font-family="Times,serif" font-size="14.00">LoginComponent</text>
</g>
<!-- LoginComponent&#45;&gt;AppModule -->
<g id="edge3" class="edge">
<title>LoginComponent&#45;&gt;AppModule</title>
<path fill="none" stroke="black" d="M510.22,-122.11C510.22,-122.11 510.22,-140.99 510.22,-140.99"/>
<polygon fill="black" stroke="black" points="506.72,-140.99 510.22,-150.99 513.72,-140.99 506.72,-140.99"/>
</g>
<!-- PaginaDoisComponent -->
<g id="node4" class="node">
<title>PaginaDoisComponent</title>
<polygon fill="#ffffb3" stroke="black" points="479.88,-122 334.12,-122 334.12,-86 479.88,-86 479.88,-122"/>
<text text-anchor="middle" x="407" y="-99.8" font-family="Times,serif" font-size="14.00">PaginaDoisComponent</text>
</g>
<!-- PaginaDoisComponent&#45;&gt;AppModule -->
<g id="edge4" class="edge">
<title>PaginaDoisComponent&#45;&gt;AppModule</title>
<path fill="none" stroke="black" d="M459.56,-122.11C459.56,-122.11 459.56,-140.99 459.56,-140.99"/>
<polygon fill="black" stroke="black" points="456.06,-140.99 459.56,-150.99 463.06,-140.99 456.06,-140.99"/>
</g>
<!-- PaginaUmComponent -->
<g id="node5" class="node">
<title>PaginaUmComponent</title>
<polygon fill="#ffffb3" stroke="black" points="316.43,-122 175.57,-122 175.57,-86 316.43,-86 316.43,-122"/>
<text text-anchor="middle" x="246" y="-99.8" font-family="Times,serif" font-size="14.00">PaginaUmComponent</text>
</g>
<!-- PaginaUmComponent&#45;&gt;AppModule -->
<g id="edge5" class="edge">
<title>PaginaUmComponent&#45;&gt;AppModule</title>
<path fill="none" stroke="black" d="M246,-122.02C246,-139.37 246,-163 246,-163 246,-163 429.26,-163 429.26,-163"/>
<polygon fill="black" stroke="black" points="429.26,-166.5 439.26,-163 429.26,-159.5 429.26,-166.5"/>
</g>
<!-- AppComponent  -->
<g id="node8" class="node">
<title>AppComponent </title>
<polygon fill="#80b1d3" stroke="black" points="535.44,-252 426.56,-252 426.56,-216 535.44,-216 535.44,-252"/>
<text text-anchor="middle" x="481" y="-229.8" font-family="Times,serif" font-size="14.00">AppComponent </text>
</g>
<!-- AppModule&#45;&gt;AppComponent  -->
<g id="edge7" class="edge">
<title>AppModule&#45;&gt;AppComponent </title>
<path fill="none" stroke="black" stroke-dasharray="1,5" d="M481,-187.11C481,-187.11 481,-205.99 481,-205.99"/>
<polygon fill="black" stroke="black" points="477.5,-205.99 481,-215.99 484.5,-205.99 477.5,-205.99"/>
</g>
<!-- AppRoutingModule -->
<g id="node7" class="node">
<title>AppRoutingModule</title>
<polygon fill="#8dd3c7" stroke="black" points="152.27,-122 149.27,-126 128.27,-126 125.27,-122 23.73,-122 23.73,-86 152.27,-86 152.27,-122"/>
<text text-anchor="middle" x="88" y="-99.8" font-family="Times,serif" font-size="14.00">AppRoutingModule</text>
</g>
<!-- AppRoutingModule&#45;&gt;AppModule -->
<g id="edge6" class="edge">
<title>AppRoutingModule&#45;&gt;AppModule</title>
<path fill="none" stroke="black" d="M88,-122.28C88,-143.32 88,-175 88,-175 88,-175 429.31,-175 429.31,-175"/>
<polygon fill="black" stroke="black" points="429.31,-178.5 439.31,-175 429.31,-171.5 429.31,-178.5"/>
</g>
</g>
</svg>
